<?xml version="1.0" standalone="yes"?>
<svg width="1747" height="1240">
<path style="fill:#000000; stroke:none;" d="M0 0L0 1240L1747 1240L1747 0L0 0z"/>
<path style="fill:#7ebad3; stroke:none;" d="M790 145L790 146L846 146L828 145L790 145z"/>
<path style="fill:#63c9f1; stroke:none;" d="M585 223C578.236 223.988 573.176 229.46 568 233.6C555.541 243.568 543.767 254.346 532.911 266C528.702 270.518 520.288 276.127 520.343 283C520.403 290.68 523.089 299.215 523.83 307C524.387 312.851 523.143 319.056 524.263 324.83C525.954 333.549 532.155 340.771 528.661 350C524.81 360.168 517.314 369.11 512.789 378.985C508.836 387.614 509.053 396.923 503.616 405.015C499.118 411.708 490.492 414.009 486.884 421.015C478.949 436.42 480.169 453.353 469.482 468C461.553 478.868 451.657 487.925 441 496.119C436.541 499.547 426.968 504.059 424.6 509.26C421.045 517.066 424 531.476 424 540C424 570.008 428.18 597.418 432 627C460.711 614.631 490.611 604.728 521 619.549C536.058 626.893 548.948 638.906 562.711 648.339C571.632 654.453 578.219 668.295 588 672C584.41 660.049 574.558 650.73 567.923 640.676C564.755 635.876 562.758 629.985 559.631 625C555.778 618.856 549.61 611.47 549.059 604C548.275 593.377 559.457 582.579 564.498 573.83C574.929 555.724 586.056 537.995 596.757 520C602.126 510.97 610.35 501.22 613 491C602.355 484.887 578.043 475.582 581.724 460C585.812 442.692 620.563 441.478 635 437.873C656.947 432.394 678.816 426.167 701 421.735C709.165 420.104 718.584 415.305 727 418.938C738.687 423.984 743.468 448.354 744 460C751.869 459.597 758.664 455.655 766 453.205C778.37 449.074 791.995 446 805 446C805.005 438.345 806.251 432.539 812.616 427.595C814.936 425.793 819.283 424.653 820.933 422.276C825.916 415.099 812.154 401.914 827.995 400.109C829.97 399.884 832.017 400.001 834 400L818 368L816 368C808.695 379.892 796.831 410.29 781 411.403C772.325 412.013 760.17 400.811 753 396.421C737.669 387.036 722.143 377.814 707 368.139C700.314 363.867 692.056 358.439 690.409 350C689.398 344.821 692.931 340.433 695 336C678.657 338.541 667.73 359.601 654 366.544C641.1 373.068 619.269 368.833 608.343 378.573C598.231 387.587 593.909 397.168 580 402.475C576.874 403.668 571.754 406.6 568.599 404.303C554.334 393.92 569.722 381.462 567.74 370.17C565.333 356.459 551.993 328.585 563.483 316.148C570.121 308.963 584.254 311.2 593 310.985C603.71 310.722 615.237 306.087 625.286 302.67C628.758 301.489 633.602 300.949 636.258 298.182C638.912 295.417 639.228 287.759 640 284C655.163 284 669.979 287.018 685 288.845C691.244 289.605 701.264 291.07 705.566 296.144C709.111 300.325 708 306.909 708 312C714.3 308.553 717.585 299.928 721.319 294C730.78 278.98 738.324 261.679 751.576 249.669C762.047 240.179 776.663 240 790 240L852 240C861.178 240 876.647 237.038 885 241.013C895.247 245.889 900.797 261.251 904.987 271C913.376 290.523 925.034 309.079 934.845 328C937.938 333.966 943.667 353.126 950.39 355.267C953.545 356.272 958.331 353.093 961 351.681C968.515 347.705 976.294 341.471 985 341C984.985 318.462 958.777 307.907 947.154 290.907C939.689 279.989 942.101 265.583 939.485 253C936.071 236.575 927.965 221.633 925.08 205C923.722 197.165 919.153 186.769 923.314 179.054C928.687 169.091 941.244 172.306 949 167C905.296 147.627 855.847 146 809 146C797.273 146 785.666 145.84 774 146.925C769.822 147.314 763.08 146.932 759.498 149.318C751.207 154.841 745.954 169.904 740.117 177.867C734.31 185.789 725.011 194.337 718.076 201.715C707.288 213.194 691.068 215.81 680.799 228.263C671.933 239.016 669.58 256.465 655.946 262.867C634.908 272.746 591.23 269.754 582.803 242.985C580.593 235.963 583.552 229.749 585 223z"/>
<path style="fill:#a7dbaa; stroke:none;" d="M758 149C733.922 150.037 707.392 158.712 685 167.192C668.382 173.486 651.688 179.88 636 188.309C617.758 198.111 592.149 209.114 583.264 229.001C569.884 258.948 620.338 270.339 639.911 267.87C663.138 264.941 666.103 244.586 679.001 230.443C688.362 220.178 700.45 215.448 710.961 207.57C723.452 198.208 734.24 183.475 743.389 171.001C748.409 164.156 756.44 157.605 758 149z"/>
<path style="fill:#ffffff; stroke:none;" d="M747 150L748 151L747 150z"/>
<path style="fill:#7bcbd2; stroke:none;" d="M737 181L750 164C743.833 167.132 739.528 174.722 737 181z"/>
<path style="fill:#a7dbaa; stroke:none;" d="M985 341L979 341L979 342C981.654 342.008 984.434 341.846 987 342.653C1008.55 349.428 992.352 373.334 990 387L991 387C996.925 383.152 1018.2 396.988 1020 403C1010.62 403 990.971 401.819 983.703 408.819C980.499 411.905 979.409 418.849 978.14 423C975.174 432.703 971.611 442.157 969 452L970 452C983.259 437.204 1003.93 439.008 1018 451.544C1024.42 457.264 1029.85 464.873 1027.53 473.996C1025.37 482.475 1016.92 484.229 1010 487.546C998.768 492.928 986.108 498.353 980 510C991.152 505.194 1006.02 489.097 1019 492.431C1031.84 495.729 1040.53 518.554 1046.8 529C1054.62 542.032 1062.39 555.099 1070.43 568C1077.46 579.297 1085.02 589.985 1083.91 604C1082.99 615.63 1074.86 625.349 1071 636C1096.88 636 1108.58 615.14 1122.09 596.039C1128.05 587.609 1137.64 576.452 1139 566C1128.3 561.554 1117.92 547.755 1111.93 537.996C1107.45 530.716 1105.77 524.359 1115 520.367C1122.77 517.009 1133.15 519.108 1141 521C1148.43 522.79 1156.77 524.818 1162.98 529.498C1171.92 536.235 1177.05 548.474 1182.45 557.911C1190.23 571.522 1199.27 584.384 1207 598L1210 597C1210.59 568.427 1215.57 539.769 1212.83 511C1202.72 404.813 1155.71 307.949 1074 238.272C1042.7 211.579 1007.01 189.77 969 174.012C955.61 168.46 948.613 167.398 934.985 172.036C931.042 173.378 925.607 174.255 923.318 178.134C918.832 185.732 923.533 197.21 924.916 205C927.974 222.223 936.782 237.877 939.676 255C941.857 267.907 939.811 282.81 948.414 293.482C960.285 308.208 984.943 320.395 985 341z"/>
<path style="fill:#84d3c6; stroke:none;" d="M928 173L928 174L940 171L928 173z"/>
<path style="fill:#ffffff; stroke:none;" d="M997 187L998 188L997 187z"/>
<path style="fill:#7dd0ce; stroke:none;" d="M696 216C708.82 211.185 719.25 204.465 726 192L709.985 207.57L696 216z"/>
<path style="fill:#ffffff; stroke:none;" d="M1022 201L1023 202L1022 201z"/>
<path style="fill:#72c7c1; stroke:none;" d="M589 217L583 222L584 227L585 227L589 217z"/>
<path style="fill:#85d0cc; stroke:none;" d="M678 230L670 246L671 246L680 230L678 230z"/>
<path style="fill:#6bc1a3; stroke:none;" d="M774 240L774 241L847 241L887 242C880.338 236.953 864.216 240 856 240L774 240z"/>
<path style="fill:#6ab37c; stroke:none;" d="M768 241L768 242L885 242L849 241L768 241z"/>
<path style="fill:#77b254; stroke:none;" d="M738 267C749.977 262.923 758.55 261.015 767.671 272.001C782.47 289.824 790.675 315.495 801.258 336C813.917 360.526 832.348 386.436 840 413C827.526 417.54 790.088 435.494 811.105 452.431C818.261 458.199 831.322 459.852 840 462.67C861.664 469.704 883.305 476.81 905 483.745C916.628 487.461 934.685 497.21 947 494.721C958.341 492.429 960.622 476.287 962.819 467C968.106 444.643 979.015 422.301 985.59 400C989.325 387.332 1004.67 361.288 996.297 349.015C985.646 333.4 972.625 347.892 961 351.932C958.092 352.943 952.511 356.296 949.633 354.267C940.352 347.722 935.086 330.052 931.028 320C924.258 303.23 913.383 287.3 905.437 271C901.476 262.876 896.886 246.839 887.985 242.938C879.118 239.051 863.621 242 854 242L793 242C784.116 242 772.56 240.045 764 242.51C753.547 245.52 740.75 256.359 738 267z"/>
<path style="fill:#6dbfaa; stroke:none;" d="M752 250L760 245C756.238 244.454 753.739 246.832 752 250z"/>
<path style="fill:#7ad1d3; stroke:none;" d="M669 248C663.172 255.533 656.956 260.627 648 264L648 265C655.577 264.017 669.809 257.402 669 248z"/>
<path style="fill:#3e721d; stroke:none;" d="M746 263.634C736.784 266.189 733.868 275.593 729.075 283C718.94 298.663 708.487 314.088 698.576 330C693.902 337.506 688.099 345.756 692.089 355C694.85 361.395 700.39 363.651 705.714 367.313C716.851 374.972 728.661 381.608 740 389C751.179 396.288 771.922 414.767 786 410.347C794.312 407.738 798.076 397.771 802.319 391C806.414 384.466 815.351 374.707 816.288 367C817.021 360.968 810.391 352.239 807.752 347C799.342 330.298 790.616 313.738 782.247 297C775.192 282.89 766.372 257.987 746 263.634z"/>
<path style="fill:#34733f; stroke:none;" d="M736 269L723 292L724 292C727.612 286.541 737.538 275.659 736 269z"/>
<path style="fill:#a7dbaa; stroke:none;" d="M519 281C464.482 340.232 427.463 427.354 424 508C431.84 504.981 437.078 499.082 443.128 493.6C455.941 481.991 471.147 469.068 478.409 452.961C482.814 443.189 481.916 431.79 486.884 422.004C490.987 413.922 500.638 411.266 505.416 403.089C509.605 395.921 509.31 387.404 512.789 379.961C517.826 369.186 529.145 357.143 529.906 345C530.589 334.091 524.184 319.868 522.259 308.911C520.702 300.048 523.352 289.185 519 281M640 284C638.788 287.884 638.869 294.434 636.258 297.501C633.53 300.704 628.198 301.367 624.424 302.67C613.384 306.481 601.661 310.282 590 311.714C582.416 312.645 567.788 309.935 563.417 318.189C557.064 330.189 563.745 357.006 567.286 369.286C570.292 379.711 553.138 395.707 568.599 404.932C571.991 406.956 577.76 403.712 581 402.475C588.701 399.537 596.293 395.135 601.857 388.961C605.521 384.895 606.611 379.229 612.015 376.843C624.583 371.295 639.592 372.937 652 366.812C658.311 363.696 661.06 357.662 666.428 353.599C682.313 341.575 704.331 335.422 706.498 312C707.017 306.394 708.081 299.775 703.721 295.34C697.089 288.593 678.145 288.474 669 287C659.155 285.414 650.03 284 640 284z"/>
<path style="fill:#98dccc; stroke:none;" d="M521 287L522 312L524 312L521 287z"/>
<path style="fill:#8dd6cd; stroke:none;" d="M672 287L672 288L694 291L672 287z"/>
<path style="fill:#8ad2c8; stroke:none;" d="M701 293L701 294C708.881 299.951 706.369 307.413 706 316L710 313C706.075 305.942 710.833 295.828 701 293z"/>
<path style="fill:#6cbca0; stroke:none;" d="M918 296L920 299L918 296z"/>
<path style="fill:#6ebf9c; stroke:none;" d="M922 304L924 307L922 304z"/>
<path style="fill:#7cccd2; stroke:none;" d="M564 362L565 362C564.126 350.929 556.178 324.313 565.789 315.893C571.971 310.477 584.432 312 592 312C588.574 310.562 584.696 310.983 581 311.001C575.747 311.026 567.48 311.46 563.483 315.317C554.374 324.106 561.953 351.014 564 362z"/>
<path style="fill:#ffffff; stroke:none;" d="M490 318L491 319L490 318z"/>
<path style="fill:#6dba89; stroke:none;" d="M932 324L935 331L936 331L932 324z"/>
<path style="fill:#6ab886; stroke:none;" d="M937 333L942 346L943 346L937 333z"/>
<path style="fill:#ffffff; stroke:none;" d="M478 337L479 338L478 337z"/>
<path style="fill:#3f845e; stroke:none;" d="M690 344L690 352L691 352L690 344z"/>
<path style="fill:#6dbaa0; stroke:none;" d="M968 348L971 346L968 348z"/>
<path style="fill:#66b586; stroke:none;" d="M961 351L961 352L968 349L961 351z"/>
<path style="fill:#81ccd1; stroke:none;" d="M666 352L651 367L651 368C658.688 365.716 664.403 358.972 668 352L666 352z"/>
<path style="fill:#ffffff; stroke:none;" d="M1167 354L1168 355L1167 354z"/>
<path style="fill:#428461; stroke:none;" d="M704 366L707 368L704 366z"/>
<path style="fill:#7dd1ca; stroke:none;" d="M675 378C688.96 374.676 689.474 379.721 687 393C694.807 383.079 686.193 365.888 675 378z"/>
<path style="fill:#a7dbad; stroke:none;" d="M682.039 375.498C671.969 377.156 652.268 389.738 649.732 400.195C648.064 407.075 664.672 414.808 670 413.7C680.397 411.538 686.416 398.484 687.866 389C688.693 383.588 690.769 374.06 682.039 375.498z"/>
<path style="fill:#87d7cb; stroke:none;" d="M650 399L672 380C664.227 378.206 652.388 392.492 650 399z"/>
<path style="fill:#69ba93; stroke:none;" d="M824 379L825 384L826 384L824 379z"/>
<path style="fill:#63c9f2; stroke:none;" d="M991 385L984 408C995.609 402.417 1007.3 402 1020 402C1017.81 395.171 997.994 386.874 991 385z"/>
<path style="fill:#84d5d0; stroke:none;" d="M1003 390L1014 396L1014 395L1003 390z"/>
<path style="fill:#a6dba6; stroke:none;" d="M822 422L840 413C838.553 404.881 826.858 391.677 820.032 404.109C817.516 408.691 821.083 417.135 822 422z"/>
<path style="fill:#81d1ce; stroke:none;" d="M986 406L986 407L1020 403C1010.61 399.058 995.262 402.858 986 406z"/>
<path style="fill:#49946a; stroke:none;" d="M777 411L777 412L782 412L777 411z"/>
<path style="fill:#6abca8; stroke:none;" d="M706 420L706 421L716 419L706 420z"/>
<path style="fill:#77b254; stroke:none;" d="M613 491C610.108 504.306 599.099 517.419 591.549 528.514C580.594 544.613 571.301 562.082 561.662 579C558.204 585.069 552.744 590.172 550.728 597.015C546.175 612.472 560.608 626.931 568.05 639.015C578.727 656.35 589.033 673.892 599.946 691C605.483 699.68 610.554 709.349 620 714.363C627.538 718.364 638.608 718.827 647 719C642.959 713.987 637.674 710.522 635.789 704C631.423 688.89 649.094 670.103 656.399 658C676.704 624.356 698.936 591.051 718 557C730.555 560.87 746.752 579.735 760.982 570.397C772.503 562.836 766.039 546.536 763.265 536C755.593 506.853 750.278 476.875 741.721 448C738.845 438.298 738.647 423.542 728 418.938C717.584 414.435 704.308 422.752 694 423.899C670.671 426.496 647.862 436.378 625 441.338C613.762 443.776 597.005 443.414 587.326 450.089C565.265 465.302 601.012 486.205 613 491z"/>
<path style="fill:#6bb793; stroke:none;" d="M692 423L692 424L700 423L692 423z"/>
<path style="fill:#69b98b; stroke:none;" d="M813 428L820 425C816.747 423.939 814.767 425.198 813 428z"/>
<path style="fill:#73b881; stroke:none;" d="M645 435L645 436L672 430C664.888 427.225 652.213 433.091 645 435z"/>
<path style="fill:#a7dbaa; stroke:none;" d="M805 436L805 446L745 460L761 530C777.204 522.715 787.899 504.753 801.455 493.631C814.551 482.888 846.281 476.682 862.911 481.26C884.505 487.205 873.738 517.983 896 518C900.391 509.342 913.053 498.62 909.681 487.225C908.619 483.634 904.044 483.233 901 482.255C893.316 479.788 885.675 477.174 878 474.67C861.722 469.359 845.063 464.722 829 458.81C822.713 456.496 815.095 455.814 810.214 450.811C805.785 446.273 807.186 441.208 805 436z"/>
<path style="fill:#68b797; stroke:none;" d="M611 443L611 444L635 439L611 443z"/>
<path style="fill:#63c9f1; stroke:none;" d="M910 486C909.877 499.757 899.539 506.461 896 518C879.329 517.941 882.908 503.549 877.557 492.425C873.125 483.211 862.669 479.897 853 480.018C840.776 480.173 819.745 481.961 809 487.803C795.989 494.878 787.162 507.709 776.961 517.989C766.305 528.727 761.25 528.014 764.88 544C765.442 546.471 765.482 551.324 767.742 552.929C770.705 555.033 775.511 551.257 778 549.85C786.482 545.056 796.642 539.733 806.004 537.12C834.753 529.095 866.957 536.707 896 540.184C901.647 540.861 908.548 541.163 913.996 542.613C917.189 543.462 920.565 546.42 924 545.346C929.027 543.775 934.382 538.006 939 535.203C951.466 527.635 965.234 520.956 976.91 512.226C983.257 507.48 987.451 500.092 994.181 495.796C1003.01 490.158 1019.08 488.031 1025.4 479.471C1040.44 459.122 1005.94 438.805 989 441.301C957.986 445.872 971.293 479.891 949.999 493.107C938.713 500.111 921.657 486.598 910 486z"/>
<path style="fill:#6ab989; stroke:none;" d="M965 460L961 475L962 475L965 460z"/>
<path style="fill:#78c9d2; stroke:none;" d="M471 464L440 497C449.414 491.584 459.089 482.646 465.579 473.999C467.878 470.937 471.327 467.98 471 464z"/>
<path style="fill:#65b99f; stroke:none;" d="M582 469L584 472L582 469z"/>
<path style="fill:#62c0a5; stroke:none;" d="M958 480L957 486L958 486L960 480L958 480z"/>
<path style="fill:#6cbfa9; stroke:none;" d="M597 482L597 483L601 484L601 483L597 482z"/>
<path style="fill:#79bfa5; stroke:none;" d="M925 490L925 491L930 492L930 491L925 490z"/>
<path style="fill:#3e721d; stroke:none;" d="M1011 492.529C1002.84 494.412 995.06 500.873 988 505.189C974.405 513.501 960.667 521.6 947 529.8C940.087 533.948 928.804 538.289 925.279 546.015C919.347 559.015 934.363 574.691 940.551 585C942.775 588.706 944.906 594.495 948.609 596.972C954.505 600.917 970.006 598 977 598L1031 598C1039.87 598 1050.41 599.537 1059 597.061C1069.26 594.102 1075.08 582.225 1072.58 572C1070.69 564.229 1064.03 556.824 1060.01 550C1050.37 533.615 1040.92 516.79 1030.3 501.015C1025.68 494.147 1019.34 490.606 1011 492.529z"/>
<path style="fill:#6fc3c1; stroke:none;" d="M611 495L606 505C608.872 502.443 611.861 498.984 611 495z"/>
<path style="fill:#67bf9d; stroke:none;" d="M603 509L602 512L603 509z"/>
<path style="fill:#70bca0; stroke:none;" d="M601 512L594 526L595 526L601 512z"/>
<path style="fill:#7ed1c9; stroke:none;" d="M772 523L781 514L772 523z"/>
<path style="fill:#72b8cf; stroke:none;" d="M423 517L423 564L424 564C424 550.735 428.109 529.177 423 517z"/>
<path style="fill:#63c9f1; stroke:none;" d="M999 721C985.3 771.212 973.66 825.618 946.982 871.001C942.444 878.721 936.2 888.485 927.961 892.697C913.362 900.159 888.79 889.78 879.85 877.83C873.027 868.709 873.763 858.242 870.299 848C863.377 827.535 853.626 810.438 852.089 788C851.365 777.425 852 766.6 852 756C852 751.359 852.998 745.434 850.525 741.289C844.231 730.738 832.006 722.12 823.286 713.575C816.223 706.655 809.73 697.77 800.985 692.857C784.325 683.496 760.83 674.573 752 656L751 656C751 671.278 756.565 700.36 746.581 712.96C738.321 723.383 721.748 720 710 720C686.029 720 657.483 724.288 634 719.621C626.616 718.154 620.931 713.294 614 711C618.751 725.366 635.844 729.461 644.414 740.181C657.732 756.841 665.494 778.512 673.184 798C678.802 812.236 685.644 827.365 684.961 843C684.252 859.211 680.533 875.931 677.911 891.961C677.117 896.812 671.923 905.681 677.318 909.468C686.78 916.109 702.001 918.367 713 921.424C748.867 931.394 783.984 934 821 934C969.326 934 1105.73 849.026 1172.25 716C1189.81 680.872 1208.67 635.963 1209 596L1208 596L1207 598C1202.49 586.416 1193.54 575.296 1186.93 564.754C1174.63 545.165 1168.98 528.392 1145 521.745C1135.94 519.234 1113.77 514.126 1108.04 525.105C1106.18 528.686 1108.61 532.826 1110.26 536C1114.9 544.902 1122.89 553.537 1130 560.568C1132.86 563.4 1138.79 563.733 1137.97 569.004C1137.05 574.903 1131.51 579.968 1128.71 585.014C1119.46 601.637 1106.18 622.615 1089.49 632.726C1083.34 636.451 1073.38 633.68 1068.72 639.148C1065.14 643.35 1063.5 650.062 1061 655C1053.78 669.239 1047.51 683.901 1040.23 698C1035.73 706.725 1032.67 715.718 1023 720.015C1016.46 722.919 1006.07 721 999 721z"/>
<path style="fill:#6ac6a1; stroke:none;" d="M589 532L586 538L587 538L589 532z"/>
<path style="fill:#a7dbaa; stroke:none;" d="M768 554C767.687 567.368 755.742 580.824 752.17 594.17C748.342 608.469 751 624.091 751 639C751 644.726 749.683 652.435 752.275 657.714C759.914 673.274 782.906 686.206 799 690C792.765 681.149 774.32 671.008 775.231 659C775.772 651.87 782.146 646.207 786.917 641.551C795.284 633.384 803.471 625.007 811.739 616.739C831.373 597.105 850.19 573.773 872.089 556.705C879.917 550.605 892.096 553.502 895.991 563.004C899.873 572.476 897 587.832 897 598L948 598C942.003 579.18 924.002 566.844 924 546C903.095 541.138 882.593 538.894 861 536.83C844.723 535.275 830.551 531.517 814 534.808C797.273 538.133 783.961 549.305 768 554z"/>
<path style="fill:#6abfa2; stroke:none;" d="M581 545L580 548L581 545z"/>
<path style="fill:#6ba95e; stroke:none;" d="M924.333 546.667L924.667 547.333L924.333 546.667z"/>
<path style="fill:#6ebc8c; stroke:none;" d="M579 548L576 556L577 556L579 548z"/>
<path style="fill:#77b254; stroke:none;" d="M897 720L987 720C997.602 720 1015.25 723.389 1024.98 719.062C1035.5 714.385 1041.96 691.916 1047.11 682.166C1054.07 668.971 1060.3 655.103 1067.4 642C1073.45 630.829 1082.85 618.052 1083.91 605C1084.94 592.216 1079.78 582.863 1074 572L1073 572C1072.98 598.303 1051.8 599 1031 599L897 599C897 588.535 900.477 570.424 895.543 561.04C890.952 552.309 878.44 550.864 871.17 556.705C849.425 574.176 830.734 597.104 810.917 616.739C800.731 626.831 774.968 644.485 775.083 660C775.135 666.916 780.473 671.465 785 676C793.668 684.682 802.255 693.452 811.015 702.039C830.979 721.609 849.624 743.782 871 761.786C879.598 769.029 892.685 766.064 896.301 755C899.578 744.974 897 730.52 897 720z"/>
<path style="fill:#63c9f1; stroke:none;" d="M718 557C709.966 569.914 696.847 584.164 693 599C711.941 599 732.536 595.462 749 606L760 572C742.055 574.268 734.32 560.102 718 557z"/>
<path style="fill:#6ebda1; stroke:none;" d="M714 560L712 565L716 560L714 560z"/>
<path style="fill:#7fcac5; stroke:none;" d="M1134 563L1138 566L1134 563z"/>
<path style="fill:#6bbea3; stroke:none;" d="M710 567L706 576L707 576L712 567L710 567z"/>
<path style="fill:#6bb288; stroke:none;" d="M748 572L748 573L757 573L748 572z"/>
<path style="fill:#71ba97; stroke:none;" d="M562 576L558 584L562 576z"/>
<path style="fill:#6fc4ad; stroke:none;" d="M557 584L556 587L557 584z"/>
<path style="fill:#71b3a9; stroke:none;" d="M697 589L696 592L697 589z"/>
<path style="fill:#65b184; stroke:none;" d="M551 594L549 609L550 609L551 594z"/>
<path style="fill:#529c8b; stroke:none;" d="M692 597C692.982 601.583 699.12 600 703 600L737 600L737 599C724.528 599 703.003 603.12 692 597z"/>
<path style="fill:#8dc57d; stroke:none;" d="M897 598L897 599L948 599C934.873 593.492 911.311 598 897 598z"/>
<path style="fill:#5a9238; stroke:none;" d="M949 598L949 599L1054 599L1022 598L949 598z"/>
<path style="fill:#3e721d; stroke:none;" d="M691.379 601.028C684.795 605.136 680.477 617.491 676.55 624C665.863 641.718 655.017 659.36 644.189 677C638.529 686.22 631.893 695.774 636.483 707C641.28 718.732 651.153 719 662 719L717 719C724.472 719 736.459 721.268 742.985 717.107C754.852 709.538 750 685.11 750 673L750 623C750 616.427 751.532 608.197 745.891 603.475C738.27 597.095 723.3 600 714 600C708.044 600 696.549 597.801 691.379 601.028z"/>
<path style="fill:#497c3a; stroke:none;" d="M750 610L750 656L751 656C751 642.997 755.01 621.939 750 610z"/>
<path style="fill:#a7dbaa; stroke:none;" d="M675 908C675.451 886.16 684.004 865.839 684.961 844C685.685 827.463 679.156 812.086 673.184 797.001C665.121 776.633 656.88 750.437 640.329 735.019C637.299 732.196 633.313 731.676 630.004 729.276C623.867 724.825 621.63 716.078 614 714C612.099 699.774 595.241 684.326 589 671C579.941 670.095 569.75 652.643 561.829 647.128C548.75 638.021 536.393 626.569 522 619.549C501.345 609.475 471.647 608.582 450.91 618.62C445.972 621.011 439.56 621.62 435.318 625.248C429.943 629.844 436.268 643.384 437.86 649C444.405 672.092 453.017 694.528 463.753 716C496.643 781.781 547.578 837.563 610 876.424C628.636 888.026 652.941 904.696 675 908z"/>
<path style="fill:#74c8c0; stroke:none;" d="M566 636L571 644L566 636z"/>
<path style="fill:#3a8670; stroke:none;" d="M750 656L750 705L751 705C751 691.212 755.309 668.652 750 656z"/>
<path style="fill:#7eccce; stroke:none;" d="M789 687L789 688L803 694C799.37 689.568 794.484 688.088 789 687z"/>
<path style="fill:#6fc5c8; stroke:none;" d="M1043 688L1030 716C1035.42 711.601 1045.09 695.073 1043 688z"/>
<path style="fill:#6cad7c; stroke:none;" d="M624 716L624 717L649 720L624 716z"/>
<path style="fill:#448868; stroke:none;" d="M649 719L649 720L738 720L711 719L649 719z"/>
<path style="fill:#90c784; stroke:none;" d="M897 720L897 721L999 721L968 720L897 720z"/>
<path style="fill:#69bfaa; stroke:none;" d="M999 720L999 721L1024 721L999 720z"/>
<path style="fill:#a7dbaa; stroke:none;" d="M897 721C897 732.786 901.166 774.655 877 764.99C867.025 761 860.687 749.119 852 743C852 766.55 850.095 790.83 856.169 813.83C860.332 829.594 868.517 843.451 872.421 859C878.112 881.674 902.028 903.802 927.961 893.146C941.798 887.459 948.794 868.073 955.414 856C968.852 831.494 973.102 805.176 980.901 779C986.52 760.144 995.684 740.271 999 721L897 721z"/>
<path style="fill:#8fd6c6; stroke:none;" d="M987 758L980 784C984.741 780.395 988.929 763.56 987 758z"/>
<path style="fill:#ffffff; stroke:none;" d="M493 765L494 766L493 765M578 854L579 855L578 854z"/>
<path style="fill:#88d1ce; stroke:none;" d="M678 880L676 896L678 896L678 880z"/>
<path style="fill:#ffffff; stroke:none;" d="M738 927L739 928L738 927M791 934L792 935L791 934z"/>
<path style="fill:#7ebed9; stroke:none;" d="M792 934L792 935L844 935L827 934L792 934z"/>
</svg>
