<?xml version="1.0" standalone="yes"?>
<svg width="1747" height="1240">
<path style="fill:#000000; stroke:none;" d="M0 0L0 1240L1747 1240L1747 0L0 0z"/>
<path style="fill:#5e5e80; stroke:none;" d="M1059 976C1061.14 969.107 1080.05 957.386 1087 956C1093.19 945.405 1105.67 937.842 1114.25 929.116C1129.78 913.336 1143.63 896.152 1156.26 877.985C1211.31 798.763 1227.98 698.439 1204.62 605C1194.84 565.88 1177.67 528.139 1154.72 495C1131.48 461.451 1102.48 432.113 1069 408.72C927.589 309.9 728.513 335.207 615.286 465C496.723 600.909 508.097 812.746 638 936.961C664.362 962.168 695.846 983.47 729 998.691C804.927 1033.55 895.061 1041.14 975 1015.25C1005.09 1005.51 1031.51 991.247 1059 976z"/>
<path style="fill:#934f5b; stroke:none;" d="M816 451L816 452L844 444.619L887 442C881.784 439.811 874.619 441 869 441C849.955 441 834.181 446.138 816 451z"/>
<path style="fill:#e33922; stroke:none;" d="M872 902L874 902C888.875 866.273 909.243 832.329 927.985 798.711C945.945 766.496 962.267 732.142 978.26 699C986.462 682.003 997.951 666.272 1005.43 649C1012.94 631.666 1016.14 612.769 1016.96 594C1017.68 577.457 1016.26 561.145 1011.53 545.286C984.943 456.163 878.872 415.242 799 461.259C775.832 474.607 756.237 497.75 743.451 521.089C724.873 555.004 723.321 608.05 737.272 643.996C746.93 668.883 763.43 692.261 775.762 716.004C798.073 758.957 820.99 801.82 843.184 845.001C852.942 863.984 861.192 883.483 872 902z"/>
<path style="fill:#994c56; stroke:none;" d="M888 442L888 443L896 443L888 442z"/>
<path style="fill:#964e51; stroke:none;" d="M922 450L922 451L928 452L922 450z"/>
<path style="fill:#b34448; stroke:none;" d="M928 452L928 453L935 456L935 455L928 452z"/>
<path style="fill:#944c61; stroke:none;" d="M808 455L808 456L816 454L808 455z"/>
<path style="fill:#934f5d; stroke:none;" d="M801 459L801 460L808 457L801 459z"/>
<path style="fill:#a24956; stroke:none;" d="M935 456L935 457L944 460L944 459L935 456z"/>
<path style="fill:#934d61; stroke:none;" d="M784 472L799 462C794.015 460.981 786.569 467.952 784 472z"/>
<path style="fill:#a34953; stroke:none;" d="M764 492L775 480C769.773 482.439 766.078 486.635 764 492z"/>
<path style="fill:#a14a4f; stroke:none;" d="M762 492L756 502L757 502L764 492L762 492z"/>
<path style="fill:#ffafaa; stroke:none;" d="M864 495L864 496L880 496L864 495z"/>
<path style="fill:#ffffff; stroke:none;" d="M858 496.439C848.122 497.994 838.358 502.289 830 507.699C771.797 545.375 789.262 635.465 855 651.895C864.071 654.162 873.655 654.914 883 653.572C951.627 643.718 976.016 551.376 919 510.428C911.162 504.799 902.384 500.452 893 498.13C882.102 495.435 869.146 494.685 858 496.439z"/>
<path style="fill:#e1887c; stroke:none;" d="M885 496L885 497L888 497L885 496z"/>
<path style="fill:#f5897d; stroke:none;" d="M890.667 497.333L891.333 497.667L890.667 497.333z"/>
<path style="fill:#df8d81; stroke:none;" d="M894.667 498.333L895.333 498.667L894.667 498.333z"/>
<path style="fill:#aa4a4f; stroke:none;" d="M755 502L746 518C749.663 514.717 755.433 507.025 755 502z"/>
<path style="fill:#a5c88d; stroke:none;" d="M861 510L861 511L890 511L861 510z"/>
<path style="fill:#77b254; stroke:none;" d="M855 516C866.447 517.286 874.643 542.37 879 552C875.071 552.905 867.843 556.704 873.319 561.147C877.545 564.575 898.803 572.165 903.867 570.353C907.797 568.947 908.968 562.503 910.114 559C913.496 548.669 921.904 530.706 904 538C902.302 530.853 896.958 517.536 891.363 512.603C885.053 507.042 859.681 509.856 855 516z"/>
<path style="fill:#925059; stroke:none;" d="M996 512L1001 520L996 512z"/>
<path style="fill:#40721c; stroke:none;" d="M854.61 517.032C850.311 519.845 842.555 532.576 844.619 537.79C845.993 541.261 851.022 543.347 854 545.192C857.324 547.252 862.509 551.99 866.671 549.777C878.199 543.649 868.599 530.512 864.752 523.004C862.92 519.428 859.421 513.882 854.61 517.032z"/>
<path style="fill:#ac464a; stroke:none;" d="M1002 524L1004 531L1005 531L1002 524z"/>
<path style="fill:#944e54; stroke:none;" d="M741 525L740 529L741 529L741 525z"/>
<path style="fill:#a74950; stroke:none;" d="M739 532L738 535L739 532z"/>
<path style="fill:#6e8956; stroke:none;" d="M843 534L843 538L844 538L843 534z"/>
<path style="fill:#a34c4e; stroke:none;" d="M732 550L731 559L732 559L732 550z"/>
<path style="fill:#b7e2a2; stroke:none;" d="M878.333 550.667L878.667 551.333L878.333 550.667z"/>
<path style="fill:#77b254; stroke:none;" d="M825 570C820.568 577.215 812.023 586.635 810.463 595C808.771 604.072 823.223 623.338 832 624C827.839 610.712 845.377 597.315 849 585C866.312 594.445 859.358 575.434 856.884 565C855.987 561.214 855.838 555.254 851.856 553.269C844.258 549.483 805.179 560.456 825 570z"/>
<path style="fill:#f5aea3; stroke:none;" d="M796.333 554.667L796.667 555.333L796.333 554.667z"/>
<path style="fill:#c24342; stroke:none;" d="M730 559L728 600L729 600L732 559L730 559z"/>
<path style="fill:#815262; stroke:none;" d="M729 560L728 575L729 575L729 560z"/>
<path style="fill:#a7c096; stroke:none;" d="M817 561L817 565L818 565L817 561z"/>
<path style="fill:#f7aba3; stroke:none;" d="M794 564L794 568L795 568L794 564z"/>
<path style="fill:#bad4a9; stroke:none;" d="M894.667 568.333L895.333 568.667L894.667 568.333z"/>
<path style="fill:#e58c85; stroke:none;" d="M951 568L951 582L952 582L951 568z"/>
<path style="fill:#3f721d; stroke:none;" d="M917.999 570.927C909.216 573.084 890.817 585.26 904.518 593.972C909.106 596.89 924.751 596.108 929.941 594.682C939.555 592.041 925.707 569.034 917.999 570.927z"/>
<path style="fill:#b3c7a3; stroke:none;" d="M921.667 570.333L922.333 570.667L921.667 570.333z"/>
<path style="fill:#ad454d; stroke:none;" d="M1017 575L1016 608L1017 608C1017.42 598.194 1020.89 584.272 1017 575z"/>
<path style="fill:#82525f; stroke:none;" d="M727 576L728 608L729 608L727 576z"/>
<path style="fill:#ffb4a2; stroke:none;" d="M950 582L950 587L951 587L950 582z"/>
<path style="fill:#adc09c; stroke:none;" d="M898.333 583.667L898.667 584.333L898.333 583.667z"/>
<path style="fill:#bed8ac; stroke:none;" d="M861 584L861 587L862 587L861 584z"/>
<path style="fill:#b6dca2; stroke:none;" d="M849.667 585.333L850.333 585.667L849.667 585.333z"/>
<path style="fill:#77b254; stroke:none;" d="M892 624C900.267 624 915.116 626.908 922.61 623.397C931.575 619.197 937.056 597.634 935 589L934 589C930.545 600.942 902.056 596 892 596C891.998 576.191 878.555 592.394 871.001 600C868.386 602.633 864.214 605.868 864.427 610C864.811 617.49 877.245 625.767 882.344 630.655C884.177 632.412 887.614 635.807 890.397 633.917C892.96 632.178 892 626.64 892 624z"/>
<path style="fill:#fdcdc0; stroke:none;" d="M949 587L949 592L950 592L949 587z"/>
<path style="fill:#f8a69f; stroke:none;" d="M795.333 588.667L795.667 589.333L795.333 588.667z"/>
<path style="fill:#bfd9b2; stroke:none;" d="M892 588L892 596C895.995 596 902.987 597.726 904 593L903 593L893 595L892 588z"/>
<path style="fill:#e0978e; stroke:none;" d="M796.333 593.667L796.667 594.333L796.333 593.667z"/>
<path style="fill:#b3cea2; stroke:none;" d="M936 593L936 599L937 599L936 593z"/>
<path style="fill:#cee3b9; stroke:none;" d="M844 594L855 596L855 595L844 594z"/>
<path style="fill:#5a9138; stroke:none;" d="M905 595L905 596L929 596L905 595z"/>
<path style="fill:#3e721d; stroke:none;" d="M843.468 597.028C838.726 599.944 828.888 615.091 830.846 620.852C832.461 625.602 851.892 625.748 855.397 622.972C857.918 620.975 857 615.803 857 613C857.001 604.906 856.795 588.831 843.468 597.028z"/>
<path style="fill:#8aa579; stroke:none;" d="M857 597L857 621L858 621L857 597z"/>
<path style="fill:#f4a19a; stroke:none;" d="M947.333 598.667L947.667 599.333L947.333 598.667z"/>
<path style="fill:#de8b7c; stroke:none;" d="M798.333 600.667L798.667 601.333L798.333 600.667z"/>
<path style="fill:#ee9790; stroke:none;" d="M944.333 606.667L944.667 607.333L944.333 606.667z"/>
<path style="fill:#b3cba8; stroke:none;" d="M863 608L863 611L864 611L863 608z"/>
<path style="fill:#875064; stroke:none;" d="M730 617L733 634L734 634L730 617z"/>
<path style="fill:#cbdcc0; stroke:none;" d="M831 624L831 625L855 625L831 624z"/>
<path style="fill:#bdd7a8; stroke:none;" d="M892 624L892 632L893 632L893 625L922 625L892 624z"/>
<path style="fill:#994d57; stroke:none;" d="M1012 624L1012 629L1013 629L1014 624L1012 624z"/>
<path style="fill:#ba4240; stroke:none;" d="M1011 633L1009 640L1010 640L1011 633z"/>
<path style="fill:#feada2; stroke:none;" d="M852.667 651.333L853.333 651.667L852.667 651.333z"/>
<path style="fill:#ffa49b; stroke:none;" d="M856.667 652.333L857.333 652.667L856.667 652.333z"/>
<path style="fill:#b4444a; stroke:none;" d="M1001 656L996 666L1001 656z"/>
<path style="fill:#b44646; stroke:none;" d="M753 673L755 679L756 679L753 673z"/>
<path style="fill:#a24b5b; stroke:none;" d="M989 678L988 682L989 682L989 678z"/>
<path style="fill:#ac4946; stroke:none;" d="M756 679L757 683L758 683L756 679z"/>
<path style="fill:#b74640; stroke:none;" d="M985 687L977 704L978 704L985 687z"/>
<path style="fill:#b34840; stroke:none;" d="M773 712L776 719L777 719L773 712z"/>
<path style="fill:#a84752; stroke:none;" d="M967 720L966 724L967 724L967 720z"/>
<path style="fill:#9f4c58; stroke:none;" d="M965 724L964 728L965 728L965 724z"/>
<path style="fill:#ab484c; stroke:none;" d="M963 728L958 740L959 740L963 728z"/>
<path style="fill:#a34b53; stroke:none;" d="M957 740L956 743L957 740z"/>
<path style="fill:#9d4e52; stroke:none;" d="M955 743L954 747L955 747L955 743z"/>
<path style="fill:#b4483e; stroke:none;" d="M953 747L950 754L951 754L953 747z"/>
<path style="fill:#944d54; stroke:none;" d="M798 761L802 767L798 761z"/>
<path style="fill:#9b4f55; stroke:none;" d="M941 768L940 774L941 774L944 768L941 768z"/>
<path style="fill:#a34857; stroke:none;" d="M804 772L807 780L808 780L804 772z"/>
<path style="fill:#994d59; stroke:none;" d="M939 774L938 778L939 778L939 774z"/>
<path style="fill:#974c5a; stroke:none;" d="M808 780L810 783L808 780z"/>
<path style="fill:#934e59; stroke:none;" d="M936 780L934 787L935 787L938 780L936 780z"/>
<path style="fill:#8b4f62; stroke:none;" d="M812 788L814 794L815 794L812 788z"/>
<path style="fill:#be4347; stroke:none;" d="M815 792L821 805L822 805L815 792z"/>
<path style="fill:#b34546; stroke:none;" d="M824 809L830 820L824 809z"/>
<path style="fill:#99494f; stroke:none;" d="M830 822L833 830L834 830L830 822z"/>
<path style="fill:#c04442; stroke:none;" d="M913 822L910 832L911 832L915 822L913 822z"/>
<path style="fill:#a54b4e; stroke:none;" d="M909 832L906 838L909 832z"/>
<path style="fill:#a64950; stroke:none;" d="M836 833L838 836L836 833z"/>
<path style="fill:#8a4e5c; stroke:none;" d="M839 838L850 861L851 861L839 838z"/>
<path style="fill:#8f4f5d; stroke:none;" d="M905 841L902 847L903 847L905 841z"/>
<path style="fill:#4e4a6b; stroke:none;" d="M1177 842L1126.71 915L1100.91 940.95L1088 954C1095.25 950.245 1100.88 943.736 1107 938.424C1128.06 920.135 1146.46 896.537 1161.32 873C1165.9 865.753 1178.46 850.792 1177 842z"/>
<path style="fill:#a44a4b; stroke:none;" d="M899 850L890 869L891 869C894.014 864.265 900.376 855.69 899 850z"/>
<path style="fill:#a94944; stroke:none;" d="M889 869L887 876L888 876L889 869z"/>
<path style="fill:#ba4648; stroke:none;" d="M856 870L858 876L859 876L856 870z"/>
<path style="fill:#de8644; stroke:none;" d="M854 876L854 877L859 877L854 876z"/>
<path style="fill:#fcd14e; stroke:none;" d="M874 902L872 902C869.376 895.697 864.071 879.267 856.896 877.319C841.293 873.081 799.166 890.273 811.089 910.996C816.274 920.007 829.33 925.199 839 927.385C861.59 932.492 884.446 932.086 907 926.985C917.684 924.569 937.63 916.473 936.89 902.999C936.044 887.595 915.022 882.29 903 879.011C898.625 877.817 891.79 875.572 887.379 877.603C881.144 880.474 875.797 895.763 874 902z"/>
<path style="fill:#846e4e; stroke:none;" d="M808 902L808 914L809 914L808 902z"/>
<path style="fill:#f8a42a; stroke:none;" d="M937 906C921.796 935.932 869.369 933.69 842 927.803C830.34 925.295 814.179 919.293 810 907L809 907C809.128 921.341 822.292 929.42 835 932.841C861.23 939.903 889.09 937.552 915 931.471C925.114 929.098 942.164 918.332 937 906z"/>
<path style="fill:#7b5f54; stroke:none;" d="M811 918L817 924L811 918z"/>
<path style="fill:#785b56; stroke:none;" d="M920 929L920 930L926 928L920 929z"/>
<path style="fill:#cf9b52; stroke:none;" d="M905 933L905 934L912 933L905 933z"/>
<path style="fill:#ca9954; stroke:none;" d="M842 934L842 935L886 938L863 936.961L842 934z"/>
<path style="fill:#c99d60; stroke:none;" d="M886 936L886 937L894 937L886 936z"/>
<path style="fill:#4c4c65; stroke:none;" d="M1058 974L1058 975C1066.89 972.364 1081.26 963.059 1086 955L1058 974z"/>
</svg>
